<svg xmlns="http://www.w3.org/2000/svg" viewBox="0 0 64 64"><path fill="#63707c" d="M50.52,46H48.07a4.88,4.88,0,0,1-4.67-4.42L42.64,36l-.54-4-1-7L40,23H53l.14,2,2,15C55.61,43.18,53.4,46,50.52,46Z"/><circle cx="21" cy="35" r="18" fill="red"/><path fill="none" stroke="gray" stroke-miterlimit="10" stroke-width="2" d="M50,46v7.5A2.5,2.5,0,0,1,47.5,56h-9A2.5,2.5,0,0,0,36,58.5h0A2.5,2.5,0,0,0,38.5,61H62"/><path fill="#6c7b8b" d="M61,15.43a8.42,8.42,0,0,1-2.12,6.23A7,7,0,0,1,53.69,24H29V8H53.4A7.79,7.79,0,0,1,61,15.43Z"/><path fill="#fcee21" d="M42.1 32H36.64a.5.5 0 0 1-.48-.62L38 24h3zM23.5 8H29a0 0 0 0 1 0 0V24a0 0 0 0 1 0 0H23.5a.5.5 0 0 1-.5-.5V8.5A.5.5 0 0 1 23.5 8z"/><rect width="24" height="14" x="9" y="28" fill="#f2f2f2" rx=".5"/><line x1="17" x2="17" y1="32" y2="35" fill="none" stroke="#333" stroke-linecap="round" stroke-miterlimit="10" stroke-width="2"/><line x1="29" x2="29" y1="32" y2="38" fill="none" stroke="#333" stroke-linecap="round" stroke-miterlimit="10" stroke-width="2"/><line x1="17" x2="17" y1="38" y2="38" fill="none" stroke="#333" stroke-linecap="round" stroke-miterlimit="10" stroke-width="2"/><line x1="21" x2="21" y1="32" y2="38" fill="none" stroke="#333" stroke-linecap="round" stroke-miterlimit="10" stroke-width="2"/><line x1="25" x2="25" y1="32" y2="35" fill="none" stroke="#333" stroke-linecap="round" stroke-miterlimit="10" stroke-width="2"/><line x1="25" x2="25" y1="38" y2="38" fill="none" stroke="#333" stroke-linecap="round" stroke-miterlimit="10" stroke-width="2"/><line x1="13" x2="13" y1="32" y2="38" fill="none" stroke="#333" stroke-linecap="round" stroke-miterlimit="10" stroke-width="2"/></svg>