<svg xmlns="http://www.w3.org/2000/svg" width="32" height="32" viewBox="0 0 32 32"><g font-family="sans-serif" font-size="45.121" font-weight="400" letter-spacing="0" transform="translate(0 -1020.362)" word-spacing="0"><path style="isolation:auto;mix-blend-mode:normal" fill="#f8b84e" stroke="#000" stroke-linecap="round" stroke-linejoin="round" d="M 22 2.5 C 20.615 2.5 19.5 3.6283969 19.5 5.0292969 L 19.5 11.494141 L 24.5 11.494141 L 24.5 5.0292969 C 24.5 3.6283969 23.384999 2.5 22 2.5 z " color="#000" overflow="visible" transform="translate(0 1020.362)"/><path d="m 16.5,1031.3613 a 0.50005,0.50005 0 0 0 -0.5,0.5 l 0,18 a 0.50005,0.50005 0 0 0 0.5,0.5 l 14,0 a 0.50005,0.50005 0 0 0 0.5,-0.5 l 0,-18 a 0.50005,0.50005 0 0 0 -0.5,-0.5 l -14,0 z m 0.5,1 13,0 0,17 -13,0 0,-17 z" color="#000" font-size="medium" overflow="visible" white-space="normal" style="line-height:125%;text-indent:0;text-align:start;text-decoration-line:none;text-decoration-style:solid;text-decoration-color:#000;text-transform:none;block-progression:tb;isolation:auto;mix-blend-mode:normal"/><path d="M18.5 1045.3613a.50005.50005 0 0 0-.5.5l0 2a.50005.50005 0 0 0 .5.5l2 0a.50005.50005 0 0 0 .5-.5l0-2a.50005.50005 0 0 0-.5-.5l-2 0zm.5 1l1 0 0 1-1 0 0-1zM22.5 1045.3613a.50005.50005 0 0 0-.5.5l0 2a.50005.50005 0 0 0 .5.5l2 0a.50005.50005 0 0 0 .5-.5l0-2a.50005.50005 0 0 0-.5-.5l-2 0zm.5 1l1 0 0 1-1 0 0-1zM26.5 1041.3613a.50005.50005 0 0 0-.5.5l0 6a.50005.50005 0 0 0 .5.5l2 0a.50005.50005 0 0 0 .5-.5l0-6a.50005.50005 0 0 0-.5-.5l-2 0zm.5 1l1 0 0 5-1 0 0-5zM18.5 1041.3613a.50005.50005 0 0 0-.5.5l0 2a.50005.50005 0 0 0 .5.5l2 0a.50005.50005 0 0 0 .5-.5l0-2a.50005.50005 0 0 0-.5-.5l-2 0zm.5 1l1 0 0 1-1 0 0-1zM22.5 1041.3613a.50005.50005 0 0 0-.5.5l0 2a.50005.50005 0 0 0 .5.5l2 0a.50005.50005 0 0 0 .5-.5l0-2a.50005.50005 0 0 0-.5-.5l-2 0zm.5 1l1 0 0 1-1 0 0-1zM18.5 1037.3613a.50005.50005 0 0 0-.5.5l0 2a.50005.50005 0 0 0 .5.5l2 0a.50005.50005 0 0 0 .5-.5l0-2a.50005.50005 0 0 0-.5-.5l-2 0zm.5 1l1 0 0 1-1 0 0-1zM22.5 1037.3613a.50005.50005 0 0 0-.5.5l0 2a.50005.50005 0 0 0 .5.5l2 0a.50005.50005 0 0 0 .5-.5l0-2a.50005.50005 0 0 0-.5-.5l-2 0zm.5 1l1 0 0 1-1 0 0-1zM26.5 1037.3613a.50005.50005 0 0 0-.5.5l0 2a.50005.50005 0 0 0 .5.5l2 0a.50005.50005 0 0 0 .5-.5l0-2a.50005.50005 0 0 0-.5-.5l-2 0zm.5 1l1 0 0 1-1 0 0-1z" color="#000" font-size="medium" overflow="visible" white-space="normal" style="line-height:125%;text-indent:0;text-align:start;text-decoration-line:none;text-decoration-style:solid;text-decoration-color:#000;text-transform:none;block-progression:tb;isolation:auto;mix-blend-mode:normal"/><path style="isolation:auto;mix-blend-mode:normal" fill="#25b39e" d="m 18.000944,1033.3622 11,0 0,3 -11,0 z" color="#000" overflow="visible"/><path d="m 9,1022.3613 c -1.6533592,0 -3,1.3467 -3,3 l 0,16 c 0,1.6534 1.3466408,3 3,3 l 7.300781,0 a 0.50005,0.50005 0 1 0 0,-1 l -7.300781,0 c -1.1166602,0 -2,-0.8833 -2,-2 l 0,-16 c 0,-1.1166 0.8833398,-2 2,-2 l 12.75,0 a 0.50005,0.50005 0 1 0 0,-1 l -12.75,0 z" color="#000" font-size="medium" overflow="visible" white-space="normal" style="line-height:125%;text-indent:0;text-align:start;text-decoration-line:none;text-decoration-style:solid;text-decoration-color:#000;text-transform:none;block-progression:tb;isolation:auto;mix-blend-mode:normal"/><path style="isolation:auto;mix-blend-mode:normal" fill="#f8b84e" stroke="#000" stroke-linecap="round" stroke-linejoin="round" d="m 16.500945,1046.8622 -10.4999992,0 c -1.9390005,0 -3.500001,-1.561 -3.500001,-3.5 l 0,0 0,0 0,-1.4885 14.0000002,-0.023 z" color="#000" overflow="visible"/><path style="line-height:125%;text-indent:0;text-align:start;text-decoration-line:none;text-decoration-style:solid;text-decoration-color:#000;text-transform:none;block-progression:tb;isolation:auto;mix-blend-mode:normal" fill-rule="evenodd" d="M8 1025.3613l0 1 1 0 0-1-1 0zM10 1025.3613l0 1 8 0 0-1-8 0zM8 1027.3613l0 1 1 0 0-1-1 0zM10 1027.3613l0 1 8 0 0-1-8 0zM8 1029.3613l0 1 1 0 0-1-1 0zM10 1029.3613l0 1 8 0 0-1-8 0zM8 1031.3613l0 1 1 0 0-1-1 0zM10 1031.3613l0 1 5 0 0-1-5 0zM8 1033.3613l0 1 1 0 0-1-1 0zM10 1033.3613l0 1 5 0 0-1-5 0zM11 1035.3613l0 1 4 0 0-1-4 0zM11 1037.3613l0 1 4 0 0-1-4 0z" color="#000" font-size="medium" overflow="visible" white-space="normal"/></g></svg>