<svg xmlns="http://www.w3.org/2000/svg" viewBox="0 0 28 28"><linearGradient id="a" x1="878.054" x2="884.97" y1="-345.464" y2="-353.589" gradientTransform="matrix(3.0757 0 0 -3.0757 -2697.398 -1061.19)" gradientUnits="userSpaceOnUse"><stop offset="0" stop-color="#72BF53"/><stop offset="1" stop-color="#0290A4"/></linearGradient><path fill="url(#a)" d="M5.917 0h16.165A5.917 5.917 0 0 1 28 5.917v16.165A5.917 5.917 0 0 1 22.083 28H5.917A5.917 5.917 0 0 1 0 22.083V5.917A5.917 5.917 0 0 1 5.917 0z"/><path fill="#fff" d="M9.5 21c-.827 0-1.5-.673-1.5-1.5v-1a.5.5 0 0 1 .5-.5h2a.5.5 0 0 1 .5.5v1c0 .827-.673 1.5-1.5 1.5zM9 19v.5c0 .275.225.5.5.5s.5-.225.5-.5V19H9z"/><path fill="#fff" d="M19.5 19h-11c-.827 0-1.5-.673-1.5-1.5v-3a.5.5 0 0 1 .5-.5h13a.5.5 0 0 1 .5.5v3c0 .827-.673 1.5-1.5 1.5zM8 15v2.5c0 .275.225.5.5.5h11c.275 0 .5-.225.5-.5V15H8z"/><path fill="#fff" d="M20.5 15h-13a.5.5 0 0 1-.5-.5v-6C7 7.673 7.673 7 8.5 7h11c.827 0 1.5.673 1.5 1.5v6a.5.5 0 0 1-.5.5zM8 14h12V8.5c0-.275-.225-.5-.5-.5h-11c-.275 0-.5.225-.5.5V14z"/><path fill="#fff" d="M14 15a.5.5 0 0 1-.5-.5v-5a.5.5 0 0 1 1 0v5a.5.5 0 0 1-.5.5z"/><path fill="#fff" d="M20 10H8a.5.5 0 0 1 0-1h12a.5.5 0 0 1 0 1zM18.5 21c-.827 0-1.5-.673-1.5-1.5v-1a.5.5 0 0 1 .5-.5h2a.5.5 0 0 1 .5.5v1c0 .827-.673 1.5-1.5 1.5zm-.5-2v.5c0 .275.225.5.5.5s.5-.225.5-.5V19h-1zM9.5 17a.5.5 0 0 1 0-1 .5.5 0 0 1 0 1zM18.5 17a.5.5 0 0 1 0-1 .5.5 0 0 1 0 1z"/></svg>