<svg xmlns="http://www.w3.org/2000/svg" width="64" height="64" enable-background="new 0 0 64 64" viewBox="0 0 64 64"><path fill="#FFAB38" d="M32,34c-8.822,0-16-7.178-16-16S23.178,2,32,2s16,7.178,16,16S40.822,34,32,34z"/><path fill="#FFDCA0" d="M58 26c-2.209 0-4 1.791-4 4v7.999c0-1.023-.391-2.047-1.172-2.827-1.563-1.563-4.094-1.563-5.656 0l-6 6C40.391 41.953 40 42.978 40 44.001V54h-2v8h16v-8h-2l8.828-8.829c.75-.75 1.172-1.768 1.172-2.828V30C62 27.791 60.209 26 58 26zM24 44.001c0-1.023-.391-2.048-1.172-2.829l-6-6c-1.563-1.563-4.094-1.563-5.656 0C10.391 35.952 10 36.976 10 37.999V30c0-2.209-1.791-4-4-4s-4 1.791-4 4v12.343c0 1.061.422 2.078 1.172 2.828L12 54h-2v8h16v-8h-2V44.001z"/><rect width="16" height="8" x="38" y="54" fill="#1EBEA0"/><rect width="16" height="8" x="10" y="54" fill="#1EBEA0"/><path fill="#28646E" d="M58 24c-3.309 0-6 2.691-6 6v2.344c-2.111-.744-4.558-.271-6.243 1.414l-6 6c-1.134 1.134-1.758 2.641-1.757 4.243V48c0 1.104.896 2 2 2s2-.896 2-2v-4c0-.534.208-1.036.585-1.414l6-6c.78-.779 2.048-.78 2.83.001C51.792 36.964 52 37.466 52 38c0 .534-.208 1.036-.585 1.414-.781.78-.781 2.047 0 2.828.391.391.902.586 1.415.586.512 0 1.023-.195 1.414-.586C55.376 41.109 56 39.603 56 38v-.001l0 0V30c0-1.103.897-2 2-2s2 .897 2 2v12.343c0 .526-.213 1.042-.585 1.414L51.172 52H38c-1.104 0-2 .896-2 2v8c0 1.104.896 2 2 2h16c1.104 0 2-.896 2-2v-8c0-.338-.092-.652-.24-.932l6.483-6.483C63.376 45.452 64 43.945 64 42.343V30C64 26.691 61.309 24 58 24zM52 60H40v-4h12V60zM26 52H12.828l-8.243-8.243C4.213 43.385 4 42.869 4 42.343V30c0-1.103.897-2 2-2s2 .897 2 2v7.999l0 0V38c0 1.603.624 3.109 1.757 4.242.391.391.902.586 1.414.586s1.024-.195 1.415-.586c.781-.781.781-2.048 0-2.828C12.208 39.036 12 38.534 12 38c0-.534.208-1.036.585-1.414.78-.779 2.049-.779 2.829 0l6 6C21.792 42.964 22 43.466 22 44.001V48c0 1.104.896 2 2 2s2-.896 2-2v-3.998c.001-1.604-.623-3.11-1.757-4.244l-6-6C16.557 32.072 14.11 31.6 12 32.344V30c0-3.309-2.691-6-6-6s-6 2.691-6 6v12.343c0 1.603.624 3.109 1.757 4.242l6.483 6.483C8.092 53.348 8 53.662 8 54v8c0 1.104.896 2 2 2h16c1.104 0 2-.896 2-2v-8C28 52.896 27.104 52 26 52zM24 60H12v-4h12V60zM34 24h-6c-1.104 0-2 .896-2 2s.896 2 2 2h2c0 1.104.896 2 2 2s2-.896 2-2c3.309 0 6-2.691 6-6s-2.691-6-6-6h-4c-1.103 0-2-.897-2-2s.897-2 2-2h6c1.104 0 2-.896 2-2s-.896-2-2-2h-2c0-1.104-.896-2-2-2s-2 .896-2 2c-3.309 0-6 2.691-6 6s2.691 6 6 6h4c1.103 0 2 .897 2 2S35.103 24 34 24zM44 10c.52 0 1.04-.21 1.41-.59C45.79 9.04 46 8.53 46 8s-.21-1.04-.59-1.42c-.74-.74-2.08-.74-2.83.01C42.21 6.96 42 7.47 42 8s.21 1.04.59 1.41C42.96 9.79 43.48 10 44 10z"/><path fill="#28646E" d="M50,18c0-1.476-0.201-2.991-0.596-4.506c-0.279-1.067-1.374-1.711-2.44-1.429
				c-1.069,0.278-1.709,1.371-1.43,2.44C45.843,15.689,46,16.865,46,18c0,7.72-6.28,14-14,14s-14-6.28-14-14S24.28,4,32,4
				c1.798,0,3.563,0.349,5.242,1.036c1.022,0.419,2.19-0.07,2.609-1.093c0.418-1.022-0.071-2.19-1.093-2.608
				C36.594,0.449,34.321,0,32,0c-9.925,0-18,8.075-18,18s8.075,18,18,18S50,27.925,50,18z"/></svg>