<svg xmlns="http://www.w3.org/2000/svg" id="Layer_1" enable-background="new 0 0 48 48" viewBox="0 0 48 48"><path id="XMLID_1293_" fill="#fec367" d="M29,36h10c1.1,0,2,0.9,2,2v2c0,1.1-0.9,2-2,2H27c-1.1,0-2-0.9-2-2"/><path id="XMLID_1292_" fill="#fec367" d="M30,30h10c1.1,0,2,0.9,2,2v2c0,1.1-0.9,2-2,2H29"/><path id="XMLID_1290_" fill="#fec367" d="M25,20c0-1.1,0.9-2,2-2h12c1.1,0,2,0.9,2,2v2c0,1.1-0.9,2-2,2H29"/><path id="XMLID_1291_" fill="#fec367" d="M29,24h10c1.1,0,2,0.9,2,2v2c0,1.1-0.9,2-2,2h-9"/><g id="XMLID_1287_"><path id="XMLID_1363_" fill="#f8ac4e" d="M27,18c-0.6-0.4-1.2-0.8-1.8-1.2C25.5,17.5,26.2,18,27,18z"/><path id="XMLID_1366_" fill="#f8ac4e" d="M27,18c-0.8,0-1.5,0.5-1.8,1.2C28.7,21.5,31,25.5,31,30c0,0,0,0,0,0h2c0,0,0,0,0,0   C33,25.1,30.6,20.7,27,18z"/><path id="XMLID_1367_" fill="#f8ac4e" d="M25.2,40.8c0.3,0.7,1,1.2,1.8,1.2c3.7-2.7,6-7.1,6-12h-2C31,34.5,28.7,38.5,25.2,40.8z"/></g><path id="XMLID_1289_" fill="#fec367" d="M39,18H27c-1.1,0-2-0.9-2-2v-2c0-1.1,0.9-2,2-2h12c1.1,0,2,0.9,2,2v2C41,17.1,40.1,18,39,18z"/><path id="XMLID_1288_" fill="#fec367" d="M39,12H27c-1.1,0-2-0.9-2-2V8c0-1.1,0.9-2,2-2h12c1.1,0,2,0.9,2,2v2C41,11.1,40.1,12,39,12z"/><circle cx="18" cy="30" r="12" fill="#fec367"/><path fill="#010101" d="M17.9,25c0,0,0.1,0,0.1,0h0c0,0,0.1,0,0.1,0c1.1,0.1,1.9,0.9,1.9,2c0,0.6,0.4,1,1,1s1-0.4,1-1   c0-1.9-1.3-3.4-3-3.9l0-1.1c0-0.6-0.4-1-1-1h0c-0.6,0-1,0.4-1,1l0,1.1c-1.7,0.4-3,2-3,3.9c0,2.2,1.8,4,4,4c1.1,0,2,0.9,2,2   s-0.9,2-2,2s-2-0.9-2-2c0-0.6-0.4-1-1-1s-1,0.4-1,1c0,1.9,1.3,3.4,3,3.9l0,1.2c0,0.6,0.4,1,1,1h0c0.6,0,1-0.4,1-1l0-1.2   c1.7-0.4,3-2,3-3.9c0-2.2-1.8-4-4-4c-1.1,0-2-0.9-2-2C16,25.9,16.8,25.1,17.9,25z"/><path fill="#010101" d="M41.6,29.5C41.8,29,42,28.5,42,28v-2c0-0.8-0.3-1.5-0.8-2c0.5-0.5,0.8-1.2,0.8-2v-2c0-0.8-0.3-1.5-0.8-2   c0.5-0.5,0.8-1.2,0.8-2v-2c0-0.8-0.3-1.5-0.8-2c0.5-0.5,0.8-1.2,0.8-2V8c0-1.7-1.3-3-3-3H27c-1.7,0-3,1.3-3,3v2   c0,0.8,0.3,1.5,0.8,2c-0.5,0.5-0.8,1.2-0.8,2v2c0,0.8,0.3,1.5,0.8,2c-0.2,0.2-0.3,0.4-0.4,0.7c-1.9-1.1-4-1.7-6.3-1.7   c-7.2,0-13,5.8-13,13s5.8,13,13,13c2.3,0,4.5-0.6,6.3-1.7c0.5,1,1.5,1.7,2.7,1.7h12c1.7,0,3-1.3,3-3v-2c0-0.5-0.2-1-0.4-1.5   C42.4,36,43,35.1,43,34v-2C43,30.9,42.4,30,41.6,29.5z M41,34c0,0.6-0.4,1-1,1h-1c0,0,0,0,0,0h-9c0.5-1.2,0.8-2.6,1-4H40   c0.6,0,1,0.4,1,1V34z M40,26v2c0,0.6-0.4,1-1,1h-8c-0.1-1.4-0.4-2.8-1-4h9c0,0,0,0,0,0C39.5,25,40,25.5,40,26z M26,14   c0-0.5,0.4-1,1-1c0,0,0,0,0,0h12c0,0,0,0,0,0c0.5,0,1,0.5,1,1v2c0,0.6-0.4,1-1,1H27c-0.6,0-1-0.4-1-1V14z M26,8c0-0.6,0.4-1,1-1h12   c0.6,0,1,0.4,1,1v2c0,0.5-0.4,1-1,1c0,0,0,0,0,0H27c0,0,0,0,0,0c-0.5,0-1-0.5-1-1V8z M27,19h12c0.6,0,1,0.4,1,1v2c0,0.5-0.4,1-1,1   c0,0,0,0,0,0H29v0.1c-0.8-1.3-1.8-2.4-3-3.3C26.1,19.3,26.5,19,27,19z M7,30c0-6.1,4.9-11,11-11s11,4.9,11,11s-4.9,11-11,11   S7,36.1,7,30z M40,40c0,0.6-0.4,1-1,1H27c-0.5,0-0.9-0.3-1-0.8c1.2-0.9,2.2-2,3-3.3V37h0v0h10c0.5,0,1,0.5,1,1V40z"/></svg>