<svg xmlns="http://www.w3.org/2000/svg" viewBox="0 0 64 64"><g data-name="Car Park"><rect width="10.67" height="13.84" x="49.92" y="28.47" fill="#a2d5f2"/><polygon fill="#40a8c4" points="49.38 42.31 4 42.31 4 14.63 46 14.63 49.38 28.14 49.38 42.31"/><polygon fill="#393b44" points="9.13 27.08 11.24 19.21 26.69 19.21 26.69 27.08 9.13 27.08"/><polygon fill="#393b44" points="32 19.21 32 27.08 43.82 27.08 41.88 19.21 32 19.21"/><circle cx="16.82" cy="42.31" r="7.69" fill="#6e6d6d"/><circle cx="48.27" cy="42.31" r="7.69" fill="#6e6d6d"/><path fill="#231f20" d="M4.07,43.81H8a9,9,0,0,0,17.7,0H39.42a9,9,0,0,0,17.71,0h2.8a1.5,1.5,0,0,0,1.5-1.5V28.14a1.5,1.5,0,0,0-1.5-1.5h-9.1l-3.17-13a1.49,1.49,0,0,0-1.46-1.15H4.07A1.5,1.5,0,0,0,2.57,14V42.31A1.5,1.5,0,0,0,4.07,43.81ZM16.82,48.3a6,6,0,1,1,6-6A6,6,0,0,1,16.82,48.3Zm31.45,0a6,6,0,0,1-6-5.95v-.08a6,6,0,1,1,6,6ZM58.43,31.5H56.79a1.5,1.5,0,1,0,0,3h1.64v6.31h-1.3a9,9,0,0,0-6-7V29.64h7.28Zm-52.86-16H45l3.12,12.84v5a9,9,0,0,0-8.73,7.48H25.67a9,9,0,0,0-17.7,0H5.57Z"/><path fill="#231f20" d="M16.82 38.82c-3.91 0-3.91 6.07 0 6.07S20.73 38.82 16.82 38.82zM48.27 38.82c-3.9 0-3.91 6.07 0 6.07S52.19 38.82 48.27 38.82zM31.68 28.33H43.82A1.49 1.49 0 0 0 45 27.74a1.45 1.45 0 0 0 .26-1.29L43.33 19a1.51 1.51 0 0 0-1.45-1.12h-10a1.5 1.5 0 0 0-1.5 1.46l-.17 7.44a1.5 1.5 0 0 0 1.5 1.54zm1.64-7.44h7.4l1.16 4.44H33.22zM9.33 28.33H27a1.56 1.56 0 0 0 1.08-.45 1.51 1.51 0 0 0 .42-1.09l-.17-7.44a1.5 1.5 0 0 0-1.5-1.46H11.15A1.5 1.5 0 0 0 9.69 19L7.88 26.47a1.5 1.5 0 0 0 1.45 1.86zm3-7.44H25.4l.1 4.44H11.24zM31.31 33h2.43a1.5 1.5 0 0 0 0-3H31.31a1.5 1.5 0 0 0 0 3zM15.1 29.32H12.67a1.5 1.5 0 0 0 0 3H15.1a1.5 1.5 0 1 0 0-3zM60.94 52.6H5.5V50.72a1.5 1.5 0 0 0-3 0V54.1A1.5 1.5 0 0 0 4 55.6H60.94a1.5 1.5 0 0 0 0-3z"/></g></svg>