<svg xmlns="http://www.w3.org/2000/svg" viewBox="0 0 32 32"><g data-name="people"><rect width="28" height="30" x="2" y="1" fill="#f2cb3b" rx="4"/><path fill="#65360f" d="M26,1H6A4,4,0,0,0,2,5V27a4,4,0,0,0,4,4H26a4,4,0,0,0,4-4V5A4,4,0,0,0,26,1Zm2,26a2,2,0,0,1-2,2H6a2,2,0,0,1-2-2V5A2,2,0,0,1,6,3H26a2,2,0,0,1,2,2Z"/><path fill="#91cfcf" d="M18.6 10.67a2.21 2.21 0 1 0-2.17-2.21A2.2 2.2 0 0 0 18.6 10.67zM23.37 19.22l-1.45-2.74V13.92A2.66 2.66 0 0 0 19.53 11H17.67a2.66 2.66 0 0 0-2.39 2.9v2.56l-1.39 2.6-.06.14a2.68 2.68 0 0 0 .33 2.4 2 2 0 0 0 1.65.88h.62v1.67c0 1 .62 1.83 1.44 1.83h1.76c.82 0 1.44-.79 1.44-1.83V22.5h.32A2 2 0 0 0 23 21.62 2.68 2.68 0 0 0 23.37 19.22z"/><path fill="#84c43b" d="M18.6 10.67a2.21 2.21 0 1 0-2.17-2.21A2.2 2.2 0 0 0 18.6 10.67zm0-2.42a.2.2 0 0 1 .18.21.18.18 0 0 1-.35 0A.2.2 0 0 1 18.6 8.25zM21.92 16.48V13.92A2.66 2.66 0 0 0 19.53 11H17.67a2.66 2.66 0 0 0-2.39 2.9v2.56l-1.39 2.6-.06.14a2.68 2.68 0 0 0 .33 2.4 2 2 0 0 0 1.65.88h.62v1.67c0 1 .62 1.83 1.44 1.83h1.76c.82 0 1.44-.79 1.44-1.83V22.5h.32A2 2 0 0 0 23 21.62a2.68 2.68 0 0 0 .33-2.4zM19.07 24h-.64V22.5h.64zm2.32-3.5H15.84a.59.59 0 0 1-.13-.58l1.45-2.73s0 0 0 0a1.05 1.05 0 0 0 .05-.19.71.71 0 0 0 0-.2s0 0 0 0V13.92c0-.58.3-.9.39-.9h1.86c.09 0 .39.32.39.9v2.81s0 0 0 0a.71.71 0 0 0 0 .2 1.06 1.06 0 0 0 .06.19.06.06 0 0 0 0 0l1.46 2.73A.68.68 0 0 1 21.39 20.5z"/><path fill="#91cfcf" d="M9.94,6.25a2.21,2.21,0,1,0,2.18,2.21A2.19,2.19,0,0,0,9.94,6.25Z"/><path fill="#84c43b" d="M9.94,10.67A2.21,2.21,0,1,0,7.77,8.46,2.2,2.2,0,0,0,9.94,10.67Zm0-2.42a.2.2,0,0,1,.18.21.18.18,0,0,1-.35,0A.2.2,0,0,1,9.94,8.25Z"/><path fill="#91cfcf" d="M11.28,11H8.71a2.9,2.9,0,0,0-2.94,2.85v3.71a2.23,2.23,0,0,0,1.29,2v4.59A1.75,1.75,0,0,0,8.71,26h2.57a1.75,1.75,0,0,0,1.65-1.83V19.58a2.23,2.23,0,0,0,1.29-2V13.87A2.9,2.9,0,0,0,11.28,11Z"/><path fill="#84c43b" d="M14.22,17.58V13.87A2.9,2.9,0,0,0,11.28,11H8.71a2.9,2.9,0,0,0-2.94,2.85v3.71a2.23,2.23,0,0,0,1.29,2v4.59A1.75,1.75,0,0,0,8.71,26h2.57a1.75,1.75,0,0,0,1.65-1.83V19.58A2.23,2.23,0,0,0,14.22,17.58ZM9.06,24V17.81h-1a.28.28,0,0,1-.29-.23V13.87A.9.9,0,0,1,8.71,13h2.57a.9.9,0,0,1,.94.85v3.71a.28.28,0,0,1-.29.23h-1V24Z"/><path fill="#91cfcf" d="M24.76,3.82a1,1,0,0,0-1.42,0L21.39,5.77a1,1,0,0,0,0,1.41,1,1,0,0,0,1.42,0l.24-.24V9.48a1,1,0,0,0,2,0V6.94l.24.24a1,1,0,0,0,1.42,0,1,1,0,0,0,0-1.41Z"/></g></svg>