<svg xmlns="http://www.w3.org/2000/svg" fill-rule="evenodd" stroke-linejoin="round" stroke-miterlimit="2" clip-rule="evenodd" viewBox="0 0 64 64"><g><rect width="64" height="64" fill="none"/><circle cx="32" cy="32" r="28" fill="#dae7ef"/><circle cx="32" cy="32" r="28" fill="#f9f6f9" transform="matrix(.85714 0 0 .85714 4.571 4.571)"/><path fill="#57b7eb" d="M341.237,100.151C341.472,100.054 341.73,100 342,100C342.27,100 342.528,100.054 342.763,100.151L342.768,100.153C343.003,100.251 343.223,100.395 343.414,100.586L348,105.172C348.781,105.952 348.781,107.219 348,108C347.219,108.781 345.952,108.781 345.172,108L344,106.828L344,114C344,118.418 347.582,122 352,122C352,122 352,122 352,122C353.104,122 354,122.896 354,124C354,125.104 353.104,126 352,126L352,126C345.373,126 340,120.627 340,114L340,106.828L338.828,108C338.048,108.781 336.781,108.781 336,108C335.219,107.219 335.219,105.952 336,105.172L340.586,100.586C340.777,100.395 340.997,100.251 341.232,100.153L341.237,100.151Z" transform="rotate(90 232 -88)"/><path fill="#4891d3" d="M360,117.172L360,110C360,105.582 356.418,102 352,102C352,102 352,102 352,102C350.896,102 350,101.104 350,100C350,98.897 350.896,98 352,98L352,98C358.627,98 364,103.373 364,110L364,117.172L365.172,116C365.952,115.22 367.219,115.22 368,116C368.781,116.781 368.781,118.048 368,118.829L363.414,123.415C363.223,123.606 363.001,123.751 362.765,123.848C362.53,123.946 362.271,124 362,124C361.729,124 361.47,123.946 361.235,123.848C360.999,123.751 360.777,123.606 360.586,123.415L356,118.829C355.219,118.048 355.219,116.781 356,116C356.781,115.22 358.048,115.22 358.828,116L360,117.172Z" transform="rotate(90 232 -88)"/></g></svg>