<svg xmlns="http://www.w3.org/2000/svg" viewBox="0 0 60 60"><path fill="#ec4e5a" d="M46,53v3a2.911,2.911,0,0,1-2.82,3H16.82A2.911,2.911,0,0,1,14,56V53l1-1H45l1,1"/><path fill="#c4e5ec" d="M14,4V53H46V4a2.911,2.911,0,0,0-2.82-3H16.82A2.911,2.911,0,0,0,14,4"/><path fill="#ec4e5a" d="M19,1a2.006,2.006,0,0,1,2,2,2.006,2.006,0,0,0,2,2H37a2.006,2.006,0,0,0,2-2,2.006,2.006,0,0,1,2-2H19"/><path fill="#d44651" d="M46,53H42v3a2.911,2.911,0,0,1-2.82,3h4A2.911,2.911,0,0,0,46,56V53"/><path fill="#b0ced4" d="M43.18,1H41a1.985,1.985,0,0,0-.839.186A2.994,2.994,0,0,1,42,4V53h4V4a2.911,2.911,0,0,0-2.82-3"/><path fill="#d44651" d="M41,1H39.18a2.674,2.674,0,0,1,.981.186A1.985,1.985,0,0,1,41,1h0"/><path fill="#17173f" d="M43.18,60A3.918,3.918,0,0,0,47,56V4a3.918,3.918,0,0,0-3.82-4H16.82A3.918,3.918,0,0,0,13,4V56a3.918,3.918,0,0,0,3.82,4ZM38.171,2A3.009,3.009,0,0,0,38,3a1,1,0,0,1-1,1H23a1,1,0,0,1-1-1,3.009,3.009,0,0,0-.171-1ZM15,4a1.918,1.918,0,0,1,1.82-2H19a1,1,0,0,1,1,1,3,3,0,0,0,3,3H37a3,3,0,0,0,3-3,1,1,0,0,1,1-1h2.18A1.918,1.918,0,0,1,45,4V52H15Zm0,52V54H45v2a1.918,1.918,0,0,1-1.82,2H16.82A1.918,1.918,0,0,1,15,56Z"/><path fill="#17173f" d="M24 38a1 1 0 0 0-1 1v1a1 1 0 0 0 2 0V39A1 1 0 0 0 24 38zM28 38a1 1 0 0 0-1 1v1a1 1 0 0 0 2 0V39A1 1 0 0 0 28 38zM32 38a1 1 0 0 0-1 1v1a1 1 0 0 0 2 0V39A1 1 0 0 0 32 38zM36 38a1 1 0 0 0-1 1v1a1 1 0 0 0 2 0V39A1 1 0 0 0 36 38zM20 44H19V43a1 1 0 0 0-2 0v2a1 1 0 0 0 1 1h2a1 1 0 0 0 0-2zM42 42a1 1 0 0 0-1 1v1H40a1 1 0 0 0 0 2h2a1 1 0 0 0 1-1V43A1 1 0 0 0 42 42zM42 12H40a1 1 0 0 0 0 2h1v1a1 1 0 0 0 2 0V13A1 1 0 0 0 42 12zM18 16a1 1 0 0 0 1-1V14h1a1 1 0 0 0 0-2H18a1 1 0 0 0-1 1v2A1 1 0 0 0 18 16z"/><path fill="#17173f" d="M42,27H41V18a1,1,0,0,0-2,0v9H37V18a1,1,0,0,0-2,0v9H33V18a1,1,0,0,0-2,0v9H29V18a1,1,0,0,0-2,0v9H25V18a1,1,0,0,0-2,0v9H21V18a1,1,0,0,0-2,0v9H18a1,1,0,0,0,0,2h1V40a1,1,0,0,0,2,0V29h2v5a1,1,0,0,0,2,0V29h2v5a1,1,0,0,0,2,0V29h2v5a1,1,0,0,0,2,0V29h2v5a1,1,0,0,0,2,0V29h2V40a1,1,0,0,0,2,0V29h1a1,1,0,0,0,0-2Z"/></svg>